<?xml version="1.0" encoding="UTF-8"?>
<!-- Generator: Adobe Illustrator 15.0.2, SVG Export Plug-In . SVG Version: 6.00 Build 0)  -->
<!DOCTYPE svg PUBLIC "-//W3C//DTD SVG 1.1//EN" "http://www.w3.org/Graphics/SVG/1.1/DTD/svg11.dtd">
<svg xmlns="http://www.w3.org/2000/svg" xmlns:xlink="http://www.w3.org/1999/xlink" version="1.1" id="Layer_1" x="0px" y="0px" width="512px" height="698.744px" viewBox="-0.328 0 512 698.744" enable-background="new -0.328 0 512 698.744" xml:space="preserve">
<g>
	<path d="M255.67,0C137.576,0-0.328,69.789-0.328,266.487c0,190.642,223.009,413.231,232.495,422.602   c6.514,6.448,15.002,9.656,23.503,9.656c8.502,0,16.99-3.216,23.504-9.656c9.501-9.362,232.499-231.96,232.499-422.602   C511.673,69.789,373.76,0,255.67,0z M255.654,616.737c-55.342-60.524-189.115-220.279-189.115-350.25   c0-185.229,144.756-199.62,189.131-199.62c44.367,0,189.136,14.391,189.136,199.62   C444.806,396.237,310.991,556.163,255.654,616.737z" fill="#02AEDC"/>
	<path d="M255.679,122.608c-72.874,0-132.17,59.292-132.17,132.166c0,72.891,59.296,132.174,132.17,132.174   c72.878,0,132.17-59.283,132.17-132.174C387.849,181.892,328.557,122.608,255.679,122.608z M255.679,336.806   c-45.216,0-82.021-36.796-82.021-82.023c0-45.212,36.792-82.017,82.021-82.017c45.224,0,82.02,36.796,82.02,82.017   C337.698,300.01,300.902,336.806,255.679,336.806z" fill="#02AEDC"/>
</g>
</svg>
